<svg version="1.1" id="Calque_1" xmlns="http://www.w3.org/2000/svg" 
xmlns:xlink="http://www.w3.org/1999/xlink" x="0px" y="0px"
width="595.28px" height="841.89px" viewBox="0 0 595.28 841.89" 
enable-background="new 0 0 595.28 841.89" xml:space="preserve">

<g  stroke="#00F" stroke-width="2" fill="none">
<path  d="M208.584,459.597
          c-5.347-4.521-6.777-10.297-6.113-17.095
          c2.912-29.734, 55.334-53.766, 109.591-50.262
          c-59.151-6.861-107.979, 18.774-113.052, 49.586
          c-1.253, 7.615, 0.966, 15.533, 7.077, 20.496
          L208.584,459.597"/>

<path d="M341.594,393.591
         c-40.395, 8.618-68.765, 46.491-101.196, 10.957
         c44.428, 15.472, 58.066-11.16, 92.563-13.77
         c-19.409-19.646-59.53-29.064-82.973-2.774
         c11.952-3.695, 32.188-12.795, 68.894,1.306
         c-37.155-6.899-64.976, 2.111-83.34, 11.648C249.147, 348.706, 304.543, 348.055, 341.594, 393.591"/>
</g>
</svg>
